<svg width="15" height="8" viewBox="0 0 15 8" fill="none" xmlns="http://www.w3.org/2000/svg">
<path d="M14.2636 1.44218L8.01358 7.69218C7.95553 7.75029 7.8866 7.79639 7.81073 7.82785C7.73486 7.8593 7.65353 7.87549 7.57139 7.87549C7.48926 7.87549 7.40793 7.8593 7.33205 7.82785C7.25618 7.79639 7.18725 7.75029 7.1292 7.69218L0.879205 1.44218C0.76193 1.32491 0.696045 1.16585 0.696045 0.999997C0.696045 0.834144 0.76193 0.675084 0.879205 0.557809C0.99648 0.440533 1.15554 0.374649 1.32139 0.374649C1.48724 0.374649 1.6463 0.440533 1.76358 0.557809L7.57139 6.3664L13.3792 0.557809C13.4373 0.49974 13.5062 0.453677 13.5821 0.422251C13.658 0.390824 13.7393 0.374649 13.8214 0.374649C13.9035 0.374649 13.9848 0.390824 14.0607 0.422251C14.1366 0.453677 14.2055 0.49974 14.2636 0.557809C14.3216 0.615878 14.3677 0.684816 14.3991 0.760686C14.4306 0.836557 14.4467 0.917875 14.4467 0.999997C14.4467 1.08212 14.4306 1.16344 14.3991 1.23931C14.3677 1.31518 14.3216 1.38412 14.2636 1.44218Z" fill="black"/>
</svg>
