<svg width="13" height="13" viewBox="0 0 13 13" fill="none" xmlns="http://www.w3.org/2000/svg">
<path d="M2.00343 5.85375C1.90961 5.75993 1.8569 5.63268 1.8569 5.5C1.8569 5.36732 1.90961 5.24007 2.00343 5.14625C2.09725 5.05243 2.2245 4.99972 2.35718 4.99972C2.48986 4.99972 2.61711 5.05243 2.71093 5.14625L6.35718 8.79313V0.5C6.35718 0.367392 6.40986 0.240215 6.50362 0.146447C6.59739 0.0526784 6.72457 0 6.85718 0C6.98979 0 7.11696 0.0526784 7.21073 0.146447C7.3045 0.240215 7.35718 0.367392 7.35718 0.5V8.79313L11.0034 5.14625C11.0499 5.09979 11.105 5.06294 11.1657 5.0378C11.2264 5.01266 11.2915 4.99972 11.3572 4.99972C11.4229 4.99972 11.4879 5.01266 11.5486 5.0378C11.6093 5.06294 11.6645 5.09979 11.7109 5.14625C11.7574 5.1927 11.7942 5.24786 11.8194 5.30855C11.8445 5.36925 11.8575 5.4343 11.8575 5.5C11.8575 5.5657 11.8445 5.63075 11.8194 5.69145C11.7942 5.75214 11.7574 5.8073 11.7109 5.85375L7.21093 10.3538C7.16449 10.4002 7.10935 10.4371 7.04865 10.4623C6.98795 10.4874 6.92289 10.5004 6.85718 10.5004C6.79147 10.5004 6.72641 10.4874 6.66571 10.4623C6.60501 10.4371 6.54986 10.4002 6.50343 10.3538L2.00343 5.85375ZM12.3572 11.5H1.35718C1.22457 11.5 1.09739 11.5527 1.00362 11.6464C0.909856 11.7402 0.857178 11.8674 0.857178 12C0.857178 12.1326 0.909856 12.2598 1.00362 12.3536C1.09739 12.4473 1.22457 12.5 1.35718 12.5H12.3572C12.4898 12.5 12.617 12.4473 12.7107 12.3536C12.8045 12.2598 12.8572 12.1326 12.8572 12C12.8572 11.8674 12.8045 11.7402 12.7107 11.6464C12.617 11.5527 12.4898 11.5 12.3572 11.5Z" fill="black"/>
</svg>
