<svg width="25" height="37" viewBox="0 0 25 37" fill="none" xmlns="http://www.w3.org/2000/svg">
<path d="M12.6482 37.1944L12.8437 28.3012C13.0909 26.7654 12.6579 24.7562 13.3639 23.3352C14.3649 21.3195 16.7053 21.536 18.5344 20.7669C23.8406 18.5355 23.5255 14.1132 18.9941 11.1903C17.1343 9.99057 14.3076 9.32568 13.166 7.23004C12.5528 6.10466 13.2444 4.99625 14.4683 4.87345C16.1899 4.70056 17.9559 5.88572 18.9601 7.19288C19.1864 7.48775 19.4392 8.03146 19.6315 8.2407C19.6856 8.29967 19.6977 8.33037 19.7931 8.30937C20.6615 6.81156 20.5501 5.66356 19.2655 4.50828C17.8186 3.20679 15.7997 2.56371 13.9262 3.3409C11.3685 4.40164 11.2546 7.17914 13.1103 9.00495C15.1429 11.0053 20.0459 12.062 20.6244 15.1812C20.7399 15.8049 20.5888 16.4989 19.8286 16.4415C19.0684 16.3841 17.0261 14.8257 16.1996 14.3798C12.0754 12.1565 8.17331 12.1525 4.90785 15.8138C4.75758 15.9818 3.54738 17.5192 3.64917 17.6299C4.57662 16.9787 5.54931 16.3761 6.58178 15.8994C8.29772 15.1069 10.2043 14.6779 12.0818 15.1877C12.3896 15.2709 13.721 15.7572 13.3809 16.2121C13.0877 16.6039 11.7595 16.263 11.2942 16.2387C8.02062 16.0658 4.78344 17.268 2.72415 19.8459C2.57953 20.0269 1.95666 20.8752 1.92677 21.0327C1.90172 21.1652 1.94454 21.1216 2.02614 21.1329C4.12259 21.1288 6.38143 21.2242 8.34458 20.3702C9.05794 20.06 9.94257 19.5163 10.0662 18.6866C9.10964 19.6367 7.66434 19.6068 6.42747 19.3806C7.75967 18.2447 9.51439 17.6703 11.2271 18.2867C13.0925 18.9589 11.9986 20.4615 10.5961 20.7354C10.6034 20.8283 10.8951 20.8517 10.9678 20.8582C12.1804 20.9681 13.4722 20.7604 14.5192 20.1263C15.1898 19.7199 15.6503 18.9548 16.4686 18.8344C17.0818 18.7448 17.6756 18.9015 18.1103 19.3458C17.9333 19.812 17.3242 20.1359 16.8807 20.3032C16.1382 20.5835 15.3796 20.5609 14.6323 20.7669C12.8703 21.2524 11.8403 22.7389 11.7175 24.5316C11.5325 27.2324 11.997 30.1456 11.85 32.8649C11.7934 34.0994 12.1416 35.9244 11.9849 37.0934C11.9752 37.1677 12.0091 37.2283 11.8871 37.1903C11.7215 37.1386 11.2643 36.7848 11.0946 36.6595C7.92367 34.3207 3.48113 29.7966 2.07542 26.1046C1.21664 23.8498 1.03163 21.1216 0.803002 18.7165C0.373209 14.1859 0.0952979 9.44848 0.00643094 4.90819C-0.0113425 4.00255 -0.0573918 3.03713 0.965387 2.68813L12.283 0.547241L23.8511 2.76972C24.3075 3.0137 24.5159 3.40472 24.5604 3.91207C24.6913 5.42442 24.482 7.03049 24.423 8.53881C24.2421 13.1987 24.0223 18.2035 23.3583 22.81C22.6384 27.8003 19.4982 31.3946 15.8902 34.6512C15.6599 34.8588 12.771 37.3632 12.6474 37.1952L12.6482 37.1944Z" fill="#CA1583"/>
</svg>
