<svg width="432" height="37" viewBox="0 0 432 37" fill="none" xmlns="http://www.w3.org/2000/svg">
<g clip-path="url(#clip0_1_155)">
<path d="M12.6482 37.1944L12.8437 28.3012C13.0909 26.7654 12.6579 24.7562 13.3639 23.3352C14.3649 21.3195 16.7053 21.536 18.5344 20.7669C23.8406 18.5355 23.5255 14.1132 18.9941 11.1903C17.1343 9.99057 14.3076 9.32568 13.166 7.23004C12.5528 6.10466 13.2444 4.99625 14.4683 4.87345C16.1899 4.70056 17.9559 5.88572 18.9601 7.19288C19.1864 7.48775 19.4392 8.03146 19.6315 8.2407C19.6856 8.29967 19.6977 8.33037 19.7931 8.30937C20.6615 6.81156 20.5501 5.66356 19.2655 4.50828C17.8186 3.20679 15.7997 2.56371 13.9262 3.3409C11.3685 4.40164 11.2546 7.17914 13.1103 9.00495C15.1429 11.0053 20.0459 12.062 20.6244 15.1812C20.7399 15.8049 20.5888 16.4989 19.8286 16.4415C19.0684 16.3841 17.0261 14.8257 16.1996 14.3798C12.0754 12.1565 8.17331 12.1525 4.90785 15.8138C4.75758 15.9818 3.54738 17.5192 3.64917 17.6299C4.57662 16.9787 5.54931 16.3761 6.58178 15.8994C8.29772 15.1069 10.2043 14.6779 12.0818 15.1877C12.3896 15.2709 13.721 15.7572 13.3809 16.2121C13.0877 16.6039 11.7595 16.263 11.2942 16.2387C8.02062 16.0658 4.78344 17.268 2.72415 19.8459C2.57953 20.0269 1.95666 20.8752 1.92677 21.0327C1.90172 21.1652 1.94454 21.1216 2.02614 21.1329C4.12259 21.1288 6.38143 21.2242 8.34458 20.3702C9.05794 20.06 9.94257 19.5163 10.0662 18.6866C9.10964 19.6367 7.66434 19.6068 6.42747 19.3806C7.75967 18.2447 9.51439 17.6703 11.2271 18.2867C13.0925 18.9589 11.9986 20.4615 10.5961 20.7354C10.6034 20.8283 10.8951 20.8517 10.9678 20.8582C12.1804 20.9681 13.4722 20.7604 14.5192 20.1263C15.1898 19.7199 15.6503 18.9548 16.4686 18.8344C17.0818 18.7448 17.6756 18.9015 18.1103 19.3458C17.9333 19.812 17.3242 20.1359 16.8807 20.3032C16.1382 20.5835 15.3796 20.5609 14.6323 20.7669C12.8703 21.2524 11.8403 22.7389 11.7175 24.5316C11.5325 27.2324 11.997 30.1456 11.85 32.8649C11.7934 34.0994 12.1416 35.9244 11.9849 37.0934C11.9752 37.1677 12.0091 37.2283 11.8871 37.1903C11.7215 37.1386 11.2643 36.7848 11.0946 36.6595C7.92367 34.3207 3.48113 29.7966 2.07542 26.1046C1.21664 23.8498 1.03163 21.1216 0.803002 18.7165C0.373209 14.1859 0.0952979 9.44848 0.00643093 4.90819C-0.0113425 4.00255 -0.0573918 3.03713 0.965387 2.68813L12.283 0.547241L23.8511 2.76972C24.3075 3.0137 24.5159 3.40472 24.5604 3.91207C24.6913 5.42442 24.482 7.03049 24.423 8.53881C24.2421 13.1987 24.0223 18.2035 23.3583 22.81C22.6384 27.8003 19.4982 31.3946 15.8902 34.6512C15.6599 34.8588 12.771 37.3632 12.6474 37.1952L12.6482 37.1944Z" fill="#CA1583"/>
<path d="M69.433 13.2117L69.3878 22.8506C69.2997 22.9411 69.1155 22.9701 68.9919 22.9839C68.6478 23.0218 67.0571 23.0275 66.8034 22.9225C66.5497 22.8174 66.5303 22.5517 66.5077 22.2923C66.2847 19.6417 66.8066 16.4998 66.5029 13.9025C66.275 11.949 63.9184 12.6939 62.8835 13.5115L62.8375 22.7851C62.8068 22.849 62.6783 22.9322 62.6089 22.9532C62.3382 23.0356 60.8032 23.0186 60.4551 22.9831C60.1254 22.9491 59.9461 22.8538 59.9558 22.4903C60.1804 19.2288 59.6674 15.5885 59.9558 12.3715C60.0301 11.5386 60.5779 11.3084 61.2654 11.0361C63.0039 10.3478 66.3332 9.64736 68.0104 10.6104C68.2543 10.7509 68.4531 10.965 68.6688 11.1411C70.703 9.97132 74.551 9.34521 75.6416 12.0427C75.8226 12.4911 75.9979 13.2166 76.0359 13.6973C76.2621 16.5467 75.8654 19.6772 76.0407 22.5573C76.0657 22.8409 75.8654 22.9548 75.6085 22.9847C75.1496 23.038 74.1575 23.0251 73.6857 22.9855C73.4781 22.9685 73.2301 22.9507 73.155 22.7229L73.1283 14.2886C73.1202 12.0589 70.8072 12.5646 69.4314 13.2109L69.433 13.2117Z" fill="black"/>
<path d="M100.508 10.3122C101.903 10.2444 104.032 10.166 105.38 10.3647C106.072 10.4665 106.229 11.0498 106.029 11.663C105.9 12.0589 105.369 12.1526 105.346 12.5064C105.326 12.7981 105.64 13.051 105.751 13.3636C106.087 14.3048 105.951 15.7808 105.472 16.6581C104.234 18.9243 100.345 18.9784 98.1709 18.3119C97.4963 18.7699 97.7322 19.3589 98.4351 19.6142C100.312 20.296 104.518 20.5602 105.71 22.1291C106.512 23.185 106.369 25.195 105.454 26.158C103.945 27.7455 99.6913 27.7189 97.7419 27.1146C95.8741 26.5361 94.9636 25.1934 95.1704 23.2222C95.2609 22.3594 95.7376 21.7252 96.2869 21.1007C95.2876 20.4406 94.9927 18.8507 95.6091 17.8441C95.7691 17.5824 95.9985 17.4418 96.1577 17.1994C95.0307 15.8979 94.9798 13.3458 96.0551 12.0096C97.1514 10.6483 98.8625 10.3906 100.509 10.3114L100.508 10.3122ZM100.243 12.5598C98.6815 12.6947 97.994 13.484 98.2105 15.0787C98.3236 15.9076 99.2155 16.3528 99.966 16.4311C101.738 16.6153 103.279 16.2009 103.027 14.1004C102.86 12.7011 101.413 12.458 100.242 12.5598H100.243ZM98.65 22.0701C98.3688 22.1525 98.1022 22.8716 98.074 23.1495C97.9778 24.0971 98.0804 24.7547 99.0507 25.0803C99.8562 25.351 102.184 25.4051 102.87 24.8993C103.283 24.5948 103.468 23.7934 103.131 23.383C102.858 23.0501 101.597 22.7132 101.145 22.5912C100.553 22.4313 99.5225 22.142 98.9481 22.0734C98.8423 22.0604 98.7582 22.0378 98.6492 22.0693L98.65 22.0701Z" fill="black"/>
<path d="M111.822 10.1799C115.004 9.8745 117.667 11.5565 117.923 14.8874C118.164 18.0349 118.049 21.9459 114.365 22.8984C110.855 23.8064 107.7 22.1818 107.271 18.455C106.858 14.8543 107.435 10.6016 111.822 10.1799ZM112.352 12.6924C111.398 12.7578 110.706 13.2668 110.395 14.174C110.034 15.2308 110.045 18.4801 110.547 19.4794C111.407 21.1873 114.214 20.9788 114.817 19.0537C115.13 18.0551 115.132 15.1096 114.78 14.128C114.394 13.0535 113.456 12.6173 112.352 12.6924Z" fill="black"/>
<path d="M54.9965 15.4478V13.9605C54.9965 13.87 54.7881 13.412 54.7211 13.311C54.1257 12.4118 52.526 12.5298 51.6083 12.7576C50.9644 12.9176 50.0329 13.4718 49.4634 13.5283C49.1919 13.555 48.9205 13.437 48.8566 13.1535C48.7629 12.7334 48.8033 11.6548 49.1063 11.3163C49.5854 10.7823 51.7149 10.2103 52.4461 10.1578C55.5144 9.93566 57.7845 10.994 57.9768 14.2885C58.0972 16.3607 57.8823 18.5501 57.9728 20.6352C57.9114 22.4619 55.4748 22.886 54.036 23.0476C51.2173 23.3643 48.2709 23.1251 48.1118 19.648C47.9235 15.5464 51.8749 15.3242 54.9965 15.4478ZM54.9965 17.3649H53.0447C52.7619 17.3649 52.1051 17.5475 51.8426 17.6841C51.1761 18.0314 51.0412 18.8143 51.0912 19.5155C51.2286 21.4456 53.8502 20.7944 54.9974 20.2071V17.3649H54.9965Z" fill="black"/>
<path d="M34.8141 22.6194C34.7616 22.8674 34.4772 22.966 34.255 22.9862C33.7687 23.0298 32.6086 23.0419 32.1408 22.9773C31.9631 22.9522 31.7336 22.8852 31.7062 22.684L31.7021 10.1247C31.8815 7.3803 33.477 6.27835 36.1027 6.12566C37.6546 6.03518 39.6509 6.10061 41.1996 6.26138C41.9428 6.33894 41.9954 6.49244 41.7481 7.20418C41.5494 7.77697 41.1745 8.33441 40.5961 8.56546C39.213 9.11644 36.467 8.36026 35.4547 9.04777C35.1558 9.25054 34.8149 9.83949 34.8149 10.1933V13.1348H41.0679C41.1115 13.1348 41.2812 13.3473 41.2982 13.4338C41.3482 13.6955 41.3418 15.001 41.303 15.2862C41.2836 15.4292 41.1358 15.6465 41.0017 15.6465H34.8149V22.6202L34.8141 22.6194Z" fill="black"/>
<path d="M90.6124 22.8343C90.5348 22.7519 90.5356 22.5992 90.5259 22.4901C90.307 19.9364 90.6956 17.0724 90.5316 14.4864C90.4556 13.2924 90.1955 12.7414 88.911 12.6687C87.9528 12.6146 86.7814 12.9926 86.0422 13.5767L85.9969 22.7858C85.8693 22.9474 85.6592 22.9684 85.4694 22.9853C85.1269 23.0168 83.5838 23.0265 83.3431 22.9231C83.1306 22.8318 83.1338 22.6969 83.1152 22.4901L83.1168 12.0418C83.2566 10.897 85.4654 10.5254 86.4049 10.3686C89.7681 9.80959 93.0094 9.69164 93.44 13.8288C93.7308 16.6241 93.3737 19.7061 93.4909 22.537C93.4383 22.8343 93.2962 22.9361 93.0045 22.9764C92.5868 23.0346 91.4501 23.0314 91.0236 22.9845C90.921 22.9732 90.6754 22.9013 90.6124 22.8335V22.8343Z" fill="black"/>
<path d="M43.7939 5.94321C44.5259 6.01269 45.6076 5.80345 46.2951 5.92948C46.4559 5.95937 46.4955 6.08298 46.5222 6.23163L46.5294 22.4902C46.5359 22.819 46.3977 22.933 46.0899 22.9766C45.7127 23.0299 44.3481 23.0388 43.983 22.979C43.8214 22.9523 43.6453 22.8586 43.6162 22.6841L43.6477 6.06197L43.7939 5.94321Z" fill="black"/>
<path d="M78.5353 10.3078C78.8601 10.2505 80.7198 10.2521 80.9323 10.3943C81.0163 10.45 81.0478 10.5647 81.0632 10.6601L81.0688 22.5545C81.0599 22.8486 80.9008 22.9383 80.631 22.977C80.227 23.0344 78.9982 23.0336 78.5919 22.977C78.4141 22.952 78.1847 22.8849 78.1572 22.6838L78.2162 10.4516C78.2695 10.3813 78.4456 10.324 78.5361 10.3078H78.5353Z" fill="black"/>
<path d="M81.0514 5.88005C81.1266 5.98265 81.1258 6.10464 81.1363 6.22501C81.1783 6.72509 81.1815 7.65012 81.1363 8.14777C81.1023 8.52101 81.0151 8.60099 80.637 8.64058C80.2589 8.68017 78.6278 8.69552 78.3515 8.61069C78.1778 8.55737 78.1099 8.45234 78.0865 8.28026C78.0324 7.87794 78.017 6.58937 78.0453 6.17089C78.0607 5.9471 78.1689 5.82511 78.3846 5.79522C78.8847 5.72736 80.1781 5.75159 80.7065 5.79522C80.8277 5.80572 80.9488 5.80492 81.0523 5.88005H81.0514Z" fill="black"/>
<path d="M31.9024 27.7421L32.5536 27.7526L34.2848 31.443V27.7413H34.814V32.137C34.6904 32.2897 34.242 32.2808 34.1184 32.1709L32.3661 28.5347V32.2364H31.9032V27.7421H31.9024Z" fill="black"/>
<path d="M48.7754 27.7422L49.4265 27.7535L51.1578 31.4439V27.7422H51.6207V32.2364L50.9664 32.2292L49.2391 28.5355V32.2364H48.7754V27.7422Z" fill="black"/>
<path d="M59.9258 27.7422C60.703 27.8634 61.0245 28.6511 60.7353 29.3442C60.5866 29.6997 60.3378 29.6916 60.0914 29.9227C61.0932 29.98 61.1885 31.435 60.4913 31.9424C60.3346 32.0563 59.7707 32.2373 59.5954 32.2373H58.5039V27.743C58.9418 27.7915 59.5065 27.6776 59.9266 27.743L59.9258 27.7422ZM59.0331 29.6593C59.4992 29.6537 60.1076 29.7757 60.2586 29.1988C60.5018 28.2706 59.7771 28.1243 59.0331 28.1389V29.6593ZM59.0331 30.1214V31.7735C59.681 31.8317 60.4218 31.7614 60.4218 30.9471C60.4218 30.0956 59.7036 30.0689 59.0331 30.1206V30.1214Z" fill="black"/>
<path d="M83.549 27.7421C84.3367 27.8528 84.7543 28.6664 84.3892 29.3749C84.2389 29.6673 83.9796 29.7029 83.7808 29.9226C84.7341 29.9719 84.8279 31.4204 84.2106 31.906C84.0337 32.0449 83.4932 32.2372 83.2848 32.2372H82.1934V27.743C82.6175 27.785 83.1402 27.6856 83.5498 27.743L83.549 27.7421ZM82.6555 29.6592C82.998 29.635 83.452 29.7465 83.738 29.5179C84.0814 29.244 84.0709 28.4385 83.6306 28.2551C83.423 28.1687 82.813 28.0588 82.6555 28.2382V29.6592ZM82.6555 31.7743C83.4092 31.8139 84.0878 31.8163 84.0483 30.88C84.0103 29.9848 83.3486 30.1173 82.6555 30.1222V31.7743Z" fill="black"/>
<path d="M37.1127 27.6922C39.042 27.3642 39.3207 29.6739 38.949 31.0465C38.5128 32.6574 36.5052 32.7341 35.9752 31.1765C35.6149 30.1166 35.7054 27.9313 37.1127 27.6922ZM38.1008 28.3595C37.7057 27.966 37.0352 28.0226 36.7047 28.4734C36.1029 29.2958 36.1158 32.0693 37.6225 31.8358C38.781 31.6564 38.739 28.9953 38.1008 28.3595Z" fill="black"/>
<path d="M43.6814 27.7421V29.6592H45.2689V27.7421H45.7988V32.2364H45.2689V30.1213H43.6814V32.2364H43.1514V27.7421H43.6814Z" fill="black"/>
<path d="M74.0528 27.7421V29.6592H75.6411V27.7421H76.1702V32.2364H75.6411V30.1213H74.0528V32.2364H73.5236V27.7421H74.0528Z" fill="black"/>
<path d="M55.7902 32.0051C54.3562 32.7217 52.8333 32.0964 52.6814 30.4177C52.5328 28.7777 53.2833 27.4673 55.0881 27.683C55.2238 27.6991 55.614 27.7832 55.6504 27.9173L55.5906 28.3366C53.7834 27.4438 52.8616 29.1396 53.3221 30.7683C53.5636 31.6238 54.4426 32.1441 55.2602 31.6739V30.1866H54.5323V29.7899H55.7893V32.0043L55.7902 32.0051Z" fill="black"/>
<path d="M62.4068 27.7422V31.1458C62.4068 31.1999 62.6128 31.6127 62.675 31.6709C62.9674 31.944 63.6477 31.9028 63.8981 31.5788C63.9644 31.4932 64.1267 31.0917 64.1267 31.0141V27.7422H64.5897V31.212C64.5897 31.2403 64.4143 31.675 64.3812 31.7315C63.945 32.4707 62.578 32.478 62.128 31.7533C62.0674 31.6556 61.876 31.2282 61.876 31.1458V27.7422H62.4051H62.4068Z" fill="black"/>
<path d="M87.5514 27.7422V28.1389H86.0956V29.6593H87.4851V30.1214H86.0956V31.7743H87.6839V32.2364H85.5664V27.7422H87.5514Z" fill="black"/>
<path d="M79.4135 27.7422V28.1389H77.9908L77.8915 28.2382V29.6593H79.3473V30.1214H77.9908L77.8915 30.2208V31.7743H79.4798V32.2364H77.4277V27.7422H79.4135Z" fill="black"/>
<path d="M29.5741 -0.197622C32.1973 -0.390705 32.4744 3.49036 30.0775 3.80947C27.1852 4.19483 26.8645 0.00111724 29.5741 -0.197622ZM29.5725 0.128763C27.3258 0.364664 27.6772 3.80301 30.0112 3.47824C32.0842 3.18983 31.6948 -0.0950207 29.5725 0.128763Z" fill="#CA1583"/>
<path d="M90.4625 28.2705C90.4132 28.3255 89.531 27.7357 89.1101 28.4063C88.6052 29.2101 90.2088 29.77 90.5433 30.3395C91.3092 31.6426 89.7976 32.7648 88.5858 32.1112L88.5454 31.5756C89.0851 31.9714 90.1741 32.011 90.2016 31.1434C90.2355 30.0778 87.7933 29.8314 88.6407 28.2673C88.8896 27.8084 89.2644 27.6727 89.7694 27.6719C90.2743 27.6711 90.5708 27.6977 90.4633 28.2705H90.4625Z" fill="black"/>
<path d="M68.0315 27.7422V28.2051H66.9724V32.2364H66.4433V28.2051H65.4512V27.7422H68.0315Z" fill="black"/>
<path d="M72.6634 27.7421V28.205H71.6713V32.2364H71.1414V28.205H70.083V27.7421H72.6634Z" fill="black"/>
<path d="M93.9046 27.7422V28.2051H92.8455V32.2364H92.3163V28.2051H91.3242V27.7422H93.9046Z" fill="black"/>
<path d="M42.2921 27.7422V28.2051H41.233V32.2364H40.7701V28.2051H39.7109V27.7422H42.2921Z" fill="black"/>
<path d="M47.5184 27.7422H46.9893V32.2364H47.5184V27.7422Z" fill="black"/>
<path d="M30.2158 0.708706C30.8185 0.838775 30.7619 1.88013 30.1173 1.99728L30.7781 3.02167C29.946 3.22445 30.1221 1.89548 29.2569 2.0304V3.02167H28.7939V0.708706C29.2043 0.768489 29.8385 0.62711 30.2166 0.708706H30.2158ZM29.2561 1.69998C30.4743 1.83893 30.5584 0.853316 29.2561 1.03832V1.69998Z" fill="#CA1583"/>
</g>
<defs>
<clipPath id="clip0_1_155">
<rect width="432" height="37" fill="white"/>
</clipPath>
</defs>
</svg>
