<svg width="22" height="17" viewBox="0 0 22 17" fill="none" xmlns="http://www.w3.org/2000/svg">
<g clip-path="url(#clip0_1_200)">
<g clip-path="url(#clip1_1_200)">
<rect y="0.5" width="22" height="16" rx="2" fill="white"/>
<path fill-rule="evenodd" clip-rule="evenodd" d="M0 0.5H9.42857V7.96667H0V0.5Z" fill="#1A47B8"/>
<path fill-rule="evenodd" clip-rule="evenodd" d="M9.42857 0.5V1.56667H22V0.5H9.42857ZM9.42857 2.63333V3.7H22V2.63333H9.42857ZM9.42857 4.76667V5.83333H22V4.76667H9.42857ZM9.42857 6.9V7.96667H22V6.9H9.42857ZM0 9.03333V10.1H22V9.03333H0ZM0 11.1667V12.2333H22V11.1667H0ZM0 13.3V14.3667H22V13.3H0ZM0 15.4333V16.5H22V15.4333H0Z" fill="#F93939"/>
<path fill-rule="evenodd" clip-rule="evenodd" d="M1.04761 1.56667V2.63333H2.09523V1.56667H1.04761ZM3.14285 1.56667V2.63333H4.19046V1.56667H3.14285ZM5.23808 1.56667V2.63333H6.2857V1.56667H5.23808ZM7.33332 1.56667V2.63333H8.38094V1.56667H7.33332ZM6.2857 2.63333V3.7H7.33332V2.63333H6.2857ZM4.19046 2.63333V3.7H5.23808V2.63333H4.19046ZM2.09523 2.63333V3.7H3.14285V2.63333H2.09523ZM1.04761 3.7V4.76667H2.09523V3.7H1.04761ZM3.14285 3.7V4.76667H4.19046V3.7H3.14285ZM5.23808 3.7V4.76667H6.2857V3.7H5.23808ZM7.33332 3.7V4.76667H8.38094V3.7H7.33332ZM1.04761 5.83333V6.9H2.09523V5.83333H1.04761ZM3.14285 5.83333V6.9H4.19046V5.83333H3.14285ZM5.23808 5.83333V6.9H6.2857V5.83333H5.23808ZM7.33332 5.83333V6.9H8.38094V5.83333H7.33332ZM6.2857 4.76667V5.83333H7.33332V4.76667H6.2857ZM4.19046 4.76667V5.83333H5.23808V4.76667H4.19046ZM2.09523 4.76667V5.83333H3.14285V4.76667H2.09523Z" fill="white"/>
</g>
</g>
<defs>
<clipPath id="clip0_1_200">
<rect width="22" height="16" fill="white" transform="translate(0 0.5)"/>
</clipPath>
<clipPath id="clip1_1_200">
<rect y="0.5" width="22" height="16" rx="2" fill="white"/>
</clipPath>
</defs>
</svg>
